<mxfile host="app.diagrams.net" modified="2023-10-10T06:50:05.248Z" agent="Mozilla/5.0 (Windows NT 10.0; Win64; x64) AppleWebKit/537.36 (KHTML, like Gecko) Chrome/117.0.0.0 Safari/537.36" etag="Sq3jCkx9LJhMvfRG7i5q" version="22.0.4" type="device">
  <diagram name="Página-1" id="315fK6KcJEu4d5unSlhC">
    <mxGraphModel dx="493" dy="525" grid="1" gridSize="10" guides="1" tooltips="1" connect="1" arrows="1" fold="1" page="1" pageScale="1" pageWidth="827" pageHeight="1169" math="0" shadow="0">
      <root>
        <mxCell id="0" />
        <mxCell id="1" parent="0" />
        <mxCell id="5roqYv7ZRhC5T-yNIlZ9-1" value="Detección de caídas" style="rounded=1;whiteSpace=wrap;html=1;" vertex="1" parent="1">
          <mxGeometry x="40" y="30" width="120" height="40" as="geometry" />
        </mxCell>
        <mxCell id="5roqYv7ZRhC5T-yNIlZ9-4" value="Detección de postura" style="rounded=1;whiteSpace=wrap;html=1;" vertex="1" parent="1">
          <mxGeometry x="170" y="30" width="120" height="40" as="geometry" />
        </mxCell>
        <mxCell id="5roqYv7ZRhC5T-yNIlZ9-5" value="Desconexión de vías" style="rounded=1;whiteSpace=wrap;html=1;" vertex="1" parent="1">
          <mxGeometry x="300" y="30" width="120" height="40" as="geometry" />
        </mxCell>
        <mxCell id="5roqYv7ZRhC5T-yNIlZ9-6" value="Extubación" style="rounded=1;whiteSpace=wrap;html=1;" vertex="1" parent="1">
          <mxGeometry x="430" y="30" width="120" height="40" as="geometry" />
        </mxCell>
        <mxCell id="5roqYv7ZRhC5T-yNIlZ9-7" value="Ventilación" style="rounded=1;whiteSpace=wrap;html=1;" vertex="1" parent="1">
          <mxGeometry x="560" y="30" width="120" height="40" as="geometry" />
        </mxCell>
        <mxCell id="5roqYv7ZRhC5T-yNIlZ9-8" value="Constantes Paciente" style="rounded=1;whiteSpace=wrap;html=1;" vertex="1" parent="1">
          <mxGeometry x="690" y="30" width="120" height="40" as="geometry" />
        </mxCell>
        <mxCell id="5roqYv7ZRhC5T-yNIlZ9-9" value="Medición entorno" style="rounded=1;whiteSpace=wrap;html=1;" vertex="1" parent="1">
          <mxGeometry x="820" y="30" width="120" height="40" as="geometry" />
        </mxCell>
        <mxCell id="5roqYv7ZRhC5T-yNIlZ9-10" value="Sistema aviso por voz" style="rounded=1;whiteSpace=wrap;html=1;" vertex="1" parent="1">
          <mxGeometry x="950" y="30" width="120" height="40" as="geometry" />
        </mxCell>
      </root>
    </mxGraphModel>
  </diagram>
</mxfile>
